<?xml version="1.0" encoding="utf-8"?>
<!-- Svg Vector Icons : http://www.onlinewebfonts.com/icon -->
<!DOCTYPE svg PUBLIC "-//W3C//DTD SVG 1.1//EN" "http://www.w3.org/Graphics/SVG/1.1/DTD/svg11.dtd">
<svg version="1.1" xmlns="http://www.w3.org/2000/svg" xmlns:xlink="http://www.w3.org/1999/xlink" x="0px" y="0px" viewBox="0 0 256 256" enable-background="new 0 0 256 256" xml:space="preserve">
<metadata> Svg Vector Icons : http://www.onlinewebfonts.com/icon </metadata>
<g><g><g><path fill="#000000" d="M215.9,10.7C178,15,140.5,35.2,107,69.5l-7,7.2l-6,0c-26.2-0.3-52.9,14-73.1,39.2c-5.5,6.8-10.9,14.8-10.9,16.1c0,1.6,1.7,4.1,3.1,4.5c1.6,0.4,3.5,0,9-1.7c7.2-2.2,12.7-3.1,20-3.1c7,0,9.9,0.6,14.6,2.9c1.8,0.9,9.2,7.9,31.6,30.4c16,16,30.2,30.4,31.3,31.9c3,4,4.1,7.9,4.4,15.2c0.3,7.3-0.9,15-3.5,22.9c-2.1,6.5-2.1,7.5-0.3,9.3c2.3,2.3,4,2,9.5-1.8c11-7.4,24-19.5,30.6-28.2c12.2-16.3,18.5-33.5,18.6-50.9l0-6.2l8.7-8.7c18.7-18.8,31.4-35.9,41.5-56C240.5,70.2,246,49.5,246,29.5c0-7.3,0-8.1-1.1-10.4c-1.2-2.8-4.9-6.5-7.6-7.7C235.2,10.4,222.1,10.1,215.9,10.7z M235.2,21.6l1.6,1.8l-0.3,8.2c-0.4,12.4-2.4,22.9-6.7,35.7l-2,6L205.7,51c-12.2-12.2-22.1-22.4-21.9-22.6c1.4-1.3,15.7-5.3,24.3-6.9c8.6-1.5,8.6-1.6,17.8-1.6l7.8-0.1L235.2,21.6z M198.9,57.8l24.9,24.9l-2.7,5.5c-12.6,25.1-32.2,48.7-58.8,70.7c-10.5,8.7-29,21.9-36.5,26.1l-2.7,1.5l-26.6-26.6l-26.6-26.6l1.6-2.8c4-7.2,14.9-22.5,23.7-33.5c18.3-22.8,38.7-41.3,59.6-54.2c6.2-3.8,17.5-9.9,18.5-9.9C173.7,32.8,185.2,44,198.9,57.8z M90.4,87.7c-9.3,11.5-18.8,24.6-24.3,33.4c-1.9,3-3.5,5.4-3.7,5.4c-0.2,0-1.5-0.5-2.9-1.2c-1.4-0.7-4.4-1.7-6.7-2.3c-6.3-1.5-17.9-1.3-25,0.4l-1.2,0.3l1.1-1.4c5.9-7.5,14.8-16.1,22.5-21.7c11-8,28-14.4,38.7-14.5l2.8,0L90.4,87.7z M168.5,174.6c-2.7,13.3-8.9,25.9-18.3,37.2c-3.7,4.5-12.1,12.8-15.7,15.6l-2.1,1.6l0.3-2.4c2-14,1.4-22.2-1.9-30c-0.6-1.4-1.2-2.6-1.2-2.7c0-0.1,1.7-1.2,3.7-2.4c8.3-5.1,24.3-16.6,33.2-23.9l2.6-2.2l0.1,2C169.4,168.6,169,171.8,168.5,174.6z"/><path fill="#000000" d="M200.5,77c-0.7,0.5-2,2.4-2.9,4c-2.5,4.5-9,14.2-13.2,19.7c-9.2,12.2-19.2,22.6-32.7,34.2c-2.3,2-2.6,4.7-0.9,6.8c1.4,1.6,3.2,2.2,5,1.5c3.3-1.3,19.8-17.1,28.4-27.3c8.7-10.3,16.8-21.7,21.6-30.4c1.7-3.1,2-4,1.8-5.5C207.1,76.5,203.3,74.9,200.5,77z"/><path fill="#000000" d="M58.3,163.5c-5.6,1.2-11.5,4.5-15.2,8.5c-4.7,5.1-11.2,17.9-19.5,38.9c-5.4,13.6-5.9,15.8-3.7,20.1c2,4,5.5,6.2,10,6.2c6.1,0,43.5-16.4,52-22.8c4-3,7.7-8.3,9.4-13.2c1-2.8,1.2-4.2,1.2-9.3c0-5-0.2-6.5-1.1-9.2c-2.9-8.4-9.8-15.3-18.3-18.2C69.5,163.2,61.7,162.7,58.3,163.5z M72.1,174.4c13.4,6.3,15,24.9,2.9,33.2c-5.8,3.9-20.8,10.9-37.1,17.2c-7.7,3-9.2,3.3-9.8,1.8c-0.7-1.8,13.6-35.3,18.7-43.7c4.5-7.4,9.7-10.4,17.8-10.2C68.2,172.8,69.3,173.1,72.1,174.4z"/></g></g></g>
</svg>