<svg width="630" height="530" viewBox="0 0 630 530" xmlns="http://www.w3.org/2000/svg">

    <defs>
        <mask id="gear-mask">
            <path fill="white"
                d="M 280 162 L 280 140 Q 280 130 290 130 L 310 130 Q 320 130 320 140 L 320 162 A 90 90 0 0 1 348.5 173.8 L 364.25 157.7 Q 371.1 151.2 378.25 158.2 L 392.15 172.2 Q 399.15 180.2 392.15 186.2 L 376.5 201.5 A 90 90 0 0 1 387.9 230 L 410 230 Q 420 230 420 240 L 420 260 Q 420 270 410 270 L 387.9 270 A 90 90 0 0 1 375.75 298.4 L 391.5 314.8 Q 398.5 321.95 392 329 L 378.35 342.1 Q 371.35 348.95 364.1 341.95 L 348.95 326.35 A 90 90 0 0 1 320 338.25 L 320 360 Q 320 370 310 370 L 290 370 Q 280 370 280 360 L 280 338.25 A 90 90 0 0 1 251.05 326.35 L 236.1 342 Q 229 349.25 222 342 L 208 327.95 Q 200.95 321 207.95 314.05 L 224.25 298.4 A 90 90 0 0 1 212.1 270 L 190 270 Q 180 270 180 260 L 180 240 Q 180 230 190 230 L 212.1 230 A 90 90 0 0 1 223.5 201.5 L 208.1 186.1 Q 201 179 208 172 L 222.5 157.5 Q 229.1 150.95 236.1 157.95 L 251.5 173.8 A 90 90 0 0 1 280 162 Z" />
            <circle cx="300" cy="250" r="50" fill="black" />
        </mask>
    </defs>

    <!-- <path fill="hsl(248, 13%, 20%)" transform="translate(190 140)"
        d="M 207.945312 88.257812 L 196.285156 88.257812 C 194.117188 79.804688 190.730469 71.890625 186.320312 64.652344 L 194.703125 56.25 C 196.96875 53.984375 198.210938 50.964844 198.210938 47.757812 C 198.210938 44.558594 196.957031 41.535156 194.703125 39.273438 L 180.730469 25.316406 C 176.199219 20.777344 168.277344 20.785156 163.765625 25.308594 L 155.027344 33.996094 C 147.867188 29.824219 140.195312 26.609375 131.738281 24.539062 L 131.738281 12.058594 C 131.738281 5.441406 126.449219 0 119.832031 0 L 100.078125 0 C 93.460938 0 88.25 5.441406 88.25 12.058594 L 88.25 24.535156 C 79.804688 26.597656 72.078125 29.816406 64.910156 33.996094 L 56.175781 25.308594 C 51.648438 20.773438 43.726562 20.777344 39.183594 25.304688 L 25.21875 39.261719 C 22.976562 41.496094 21.703125 44.589844 21.703125 47.75 C 21.703125 50.949219 22.941406 53.964844 25.210938 56.230469 L 33.59375 64.652344 C 29.1875 71.890625 25.796875 79.804688 23.636719 88.257812 L 11.96875 88.257812 C 5.34375 88.257812 0 93.578125 0 100.183594 L 0 119.921875 C 0 126.546875 5.34375 131.75 11.96875 131.75 L 23.636719 131.75 C 25.796875 140.195312 29.183594 148.164062 33.585938 155.402344 L 25.199219 163.839844 C 22.933594 166.101562 21.6875 169.132812 21.6875 172.335938 C 21.6875 175.542969 22.933594 178.570312 25.199219 180.835938 L 39.175781 194.804688 C 41.441406 197.066406 44.453125 198.3125 47.652344 198.3125 C 50.855469 198.3125 53.871094 197.066406 56.136719 194.804688 L 64.910156 186.113281 C 72.078125 190.292969 79.804688 193.507812 88.25 195.582031 L 88.25 208.042969 C 88.25 214.660156 93.460938 219.996094 100.078125 219.996094 L 119.832031 219.996094 C 126.449219 219.996094 131.738281 214.660156 131.738281 208.042969 L 131.738281 195.574219 C 140.195312 193.507812 147.867188 190.292969 155.039062 186.113281 L 163.734375 194.789062 C 166 197.058594 169.015625 198.304688 172.230469 198.304688 C 175.433594 198.304688 178.453125 197.054688 180.714844 194.792969 L 194.691406 180.835938 C 196.953125 178.578125 198.191406 175.558594 198.203125 172.359375 C 198.203125 169.152344 196.949219 166.140625 194.691406 163.871094 L 186.316406 155.402344 C 190.71875 148.15625 194.101562 140.1875 196.269531 131.75 L 207.9375 131.75 C 214.554688 131.75 219.996094 126.546875 219.996094 119.921875 L 219.996094 100.183594 C 220 93.578125 214.5625 88.257812 207.945312 88.257812 Z M 109.949219 147.628906 C 89 147.628906 72.011719 130.800781 72.011719 110.054688 C 72.011719 89.296875 89 72.488281 109.949219 72.488281 C 130.90625 72.488281 147.902344 89.296875 147.902344 110.054688 C 147.898438 130.804688 130.90625 147.628906 109.949219 147.628906 Z M 109.949219 147.628906 " /> -->


    <!--RIGHT ARROW BLOCK-->
    <path fill="hsl(248, 40%, 85%)"
        d="M 300 420 L 550 420 L 550 400 Q 550 390 562 401 L 622.5 454 Q 630 460 622.5 466 L 562 519 Q 550 530 550 520 L 550 500 L 300 500 Z" />


    <!--CIRCLE-->
    <path fill="hsl(248, 40%, 60%)" d="M 50 250 A 250 250 0 0 1 300 0 L 300 80 A 170 170 0 0 0 130 250 Z" />
    <path fill="hsl(248, 40%, 45%)" transform="rotate(90, 300, 250)"
        d="M 50 250 A 250 250 0 0 1 300 0 L 300 80 A 170 170 0 0 0 130 250 Z" />
    <path fill="hsl(248, 40%, 30%)" transform="rotate(180, 300, 250)"
        d="M 50 250 A 250 250 0 0 1 300 0 L 300 80 A 170 170 0 0 0 130 250 Z" />
    <path fill="hsl(248, 40%, 75%)" transform="rotate(270, 300, 250)"
        d="M 50 250 A 250 250 0 0 1 300 0 L 300 80 A 170 170 0 0 0 130 250 Z" />

    <!--LEFT BLOCK-->
    <path fill="hsl(248, 40%, 15%)" d="M 0 430 Q 0 420 10 420 L 300 420 L 300 500 L 10 500 Q 0 500 0 490 Z" />

    <!-- <line stroke="white" stroke-width="0.5" x1="300" y1="0" x2="300" y2="500" />
    <line stroke="white" stroke-width="0.5" x1="50" y1="250" x2="550" y2="250" /> -->

    <!--GEAR-->
    <!-- <circle cx="300" cy="250" r="120" fill="white" opacity="0.4" />
    <circle cx="300" cy="250" r="90" fill="white" opacity="0.4" /> -->

    <path
        fill="hsl(248, 13%, 20%)"
        mask="url(#gear-mask)"
        d="M 280 162 L 280 140 Q 280 130 290 130 L 310 130 Q 320 130 320 140 L 320 162 A 90 90 0 0 1 348.5 173.8 L 364.25 157.7 Q 371.1 151.2 378.25 158.2 L 392.15 172.2 Q 399.15 180.2 392.15 186.2 L 376.5 201.5 A 90 90 0 0 1 387.9 230 L 410 230 Q 420 230 420 240 L 420 260 Q 420 270 410 270 L 387.9 270 A 90 90 0 0 1 375.75 298.4 L 391.5 314.8 Q 398.5 321.95 392 329 L 378.35 342.1 Q 371.35 348.95 364.1 341.95 L 348.95 326.35 A 90 90 0 0 1 320 338.25 L 320 360 Q 320 370 310 370 L 290 370 Q 280 370 280 360 L 280 338.25 A 90 90 0 0 1 251.05 326.35 L 236.1 342 Q 229 349.25 222 342 L 208 327.95 Q 200.95 321 207.95 314.05 L 224.25 298.4 A 90 90 0 0 1 212.1 270 L 190 270 Q 180 270 180 260 L 180 240 Q 180 230 190 230 L 212.1 230 A 90 90 0 0 1 223.5 201.5 L 208.1 186.1 Q 201 179 208 172 L 222.5 157.5 Q 229.1 150.95 236.1 157.95 L 251.5 173.8 A 90 90 0 0 1 280 162 Z" />
    <circle cx="300" cy="250" r="50" mask="url(#gear-mask)" />

    <!--VERTICAL LINES-->
    <!-- <line x1="280" y1="0" x2="280" y2="500" stroke="red" /> -->
    <!-- <line x1="320" y1="0" x2="320" y2="500" stroke="red" /> -->

    <!--HORIZONTAL LINES-->
    <!-- <line x1="0" y1="230" x2="600" y2="230" stroke="red" /> -->
    <!-- <line x1="0" y1="270" x2="600" y2="270" stroke="red" /> -->

    <!--SLANTED RECT // slope DOWN-->
    <!-- <rect width="600" height="40" x="0" y="230" fill="transparent" stroke="red" transform="rotate(45, 300, 250)" /> -->

    <!--SLANTED RECT // slope UP -->
    <!-- <rect width="600" height="40" x="0" y="230" fill="transparent" stroke="red" transform="rotate(-45, 300, 250)" /> -->


</svg>