<svg height="512" width="512" viewBox=" 0 0 512 512" xmlns="http://www.w3.org/2000/svg">
  <g opacity="">
    <circle r="256" cx="256" cy="256" fill="none" stroke="white"/>
    <circle r="177.4" cx="256" cy="256" fill="none" stroke="white"/>

   
   
    <!-- Testing Shapes Here -->
    <path d="M 256 10 A 10 10 0 0 0 246 0 A 256 256 0 0 0 27.3 140.891625 A 10 10 0 0 0 32.52955 151.81596 L 87.54105 176.484061267 A 10 10 0 0 0 98.9 173.8 A 177 177 0 0 1 246 78.82 A 10 10 0 0 0 256 68.4511191 Z " fill="limegreen" opacity="0.5"></path>
    <path d="M 256 10 A 10 10 0 0 0 246 0 A 256 256 0 0 0 27.3 140.891625 A 10 10 0 0 0 32.52955 151.81596 L 87.54105 176.484061267 A 10 10 0 0 0 98.9 173.8 A 177 177 0 0 1 246 78.82 A 10 10 0 0 0 256 68.4511191 Z " fill="red" opacity="0.5" transform="rotate(72, 256, 256)"></path>
    <path d="M 256 10 A 10 10 0 0 0 246 0 A 256 256 0 0 0 27.3 140.891625 A 10 10 0 0 0 32.52955 151.81596 L 87.54105 176.484061267 A 10 10 0 0 0 98.9 173.8 A 177 177 0 0 1 246 78.82 A 10 10 0 0 0 256 68.4511191 Z " fill="blue" opacity="0.5" transform="rotate(144, 256, 256)"></path>
    <path d="M 256 10 A 10 10 0 0 0 246 0 A 256 256 0 0 0 27.3 140.891625 A 10 10 0 0 0 32.52955 151.81596 L 87.54105 176.484061267 A 10 10 0 0 0 98.9 173.8 A 177 177 0 0 1 246 78.82 A 10 10 0 0 0 256 68.4511191 Z " fill="yellow" opacity="0.5" transform="rotate(216, 256, 256)"></path>
    <path d="M 256 10 A 10 10 0 0 0 246 0 A 256 256 0 0 0 27.3 140.891625 A 10 10 0 0 0 32.52955 151.81596 L 87.54105 176.484061267 A 10 10 0 0 0 98.9 173.8 A 177 177 0 0 1 246 78.82 A 10 10 0 0 0 256 68.4511191 Z " fill="slateblue" opacity="0.5" transform="rotate(288, 256, 256)"></path>

    <!-- RING w ROUNDED corners and NO GAPS (good ðŸ‘)-->
    <!-- <path d="M 256 10 A 10 10 0 0 0 246 0 A 256 256 0 0 0 14.52955 170.891625 A 10 10 0 0 0 21.52955 179.81596 L 77.14105 197.884061267 A 10 10 0 0 0 90.2 192.999 A 177 177 0 0 1 246 78.82 A 10 10 0 0 0 256 68.4511191 Z " fill="limegreen" opacity=""></path>
    <path d="M 256 10 A 10 10 0 0 0 246 0 A 256 256 0 0 0 14.52955 170.891625 A 10 10 0 0 0 21.52955 179.81596 L 77.14105 197.884061267 A 10 10 0 0 0 90.2 192.999 A 177 177 0 0 1 246 78.82 A 10 10 0 0 0 256 68.4511191 Z " fill="red" opacity="" transform="rotate(72, 256, 256)"></path>
    <path d="M 256 10 A 10 10 0 0 0 246 0 A 256 256 0 0 0 14.52955 170.891625 A 10 10 0 0 0 21.52955 179.81596 L 77.14105 197.884061267 A 10 10 0 0 0 90.2 192.999 A 177 177 0 0 1 246 78.82 A 10 10 0 0 0 256 68.4511191 Z " fill="blue" opacity="" transform="rotate(144, 256, 256)"></path>
    <path d="M 256 10 A 10 10 0 0 0 246 0 A 256 256 0 0 0 14.52955 170.891625 A 10 10 0 0 0 21.52955 179.81596 L 77.14105 197.884061267 A 10 10 0 0 0 90.2 192.999 A 177 177 0 0 1 246 78.82 A 10 10 0 0 0 256 68.4511191 Z " fill="yellow" opacity="" transform="rotate(216, 256, 256)"></path>
    <path d="M 256 10 A 10 10 0 0 0 246 0 A 256 256 0 0 0 14.52955 170.891625 A 10 10 0 0 0 21.52955 179.81596 L 77.14105 197.884061267 A 10 10 0 0 0 90.2 192.999 A 177 177 0 0 1 246 78.82 A 10 10 0 0 0 256 68.4511191 Z " fill="slateblue" opacity="" transform="rotate(288, 256, 256)"></path> -->

    <!-- RING w SHARP corners and NO GAPS (good ðŸ‘) -->
    <!-- <path d="M 256 0 A 256 256 0 0 0 12.52955 176.891625 L 87.14105 201.134361267 A 177 177 0 0 1 256 78.451191 Z " fill="limegreen" opacity="0.5"></path>
    <path d="M 256 0 A 256 256 0 0 0 12.52955 176.891625 L 87.14105 201.134361267 A 177 177 0 0 1 256 78.451191 Z " fill="red" opacity="0.5" transform="rotate(72, 256, 256)"></path>
    <path d="M 256 0 A 256 256 0 0 0 12.52955 176.891625 L 87.14105 201.134361267 A 177 177 0 0 1 256 78.451191 Z " fill="blue" opacity="0.5" transform="rotate(144, 256, 256)"></path>
    <path d="M 256 0 A 256 256 0 0 0 12.52955 176.891625 L 87.14105 201.134361267 A 177 177 0 0 1 256 78.451191 Z " fill="yellow" opacity="0.5" transform="rotate(216, 256, 256)"></path>
    <path d="M 256 0 A 256 256 0 0 0 12.52955 176.891625 L 87.14105 201.134361267 A 177 177 0 0 1 256 78.451191 Z " fill="slateblue" opacity="0.5" transform="rotate(288, 256, 256)"></path> -->
    
  </g>
    <!-- <rect x="-44.00004" y="433.548829237791"  width="300" height="78.451170762209" rx="10" ry="10" fill="limegreen" opacity=""/> -->
    <!-- <rect x="256" y="433.548829237791"  width="300" height="78.451170762209" fill="slategray" opacity="0.6"/> -->
    <!-- <polygon points="0,150.7744146188955 300,150.7744146188955 300,80 460,190 300,300 300,229.2255853811045 0,229.2255853811045" fill="slategray" opacity="0.9" transform="translate(256, 282.77443)"/> -->
</svg>