<svg xmlns="http://www.w3.org/2000/svg" enable-background="new 0 0 50 50" viewBox="0 0 50 50" id="document-review"><path d="M26.9,32.2l-3.4-3.4c-0.4-0.4-1-0.4-1.4,0c-0.4,0.4-0.4,1,0,1.4l4.1,4.1c0.2,0.2,0.5,0.3,0.7,0.3c0.3,0,0.5-0.1,0.7-0.3
		l8.3-8.3c0.4-0.4,0.4-1,0-1.4s-1-0.4-1.4,0L26.9,32.2z"></path><path d="M47.6,40.9l-6.8-6.8c0.5-1.2,0.9-2.5,1-3.8c0.3-3.4-0.7-6.8-2.9-9.4c-1.2-1.5-2.7-2.6-4.4-3.4v-5.2c0-2.4-2-4.4-4.5-4.4
		h-2.7V6.5c0-1.5-1.2-2.7-2.8-2.7h-3C21,2.2,19.5,1,17.8,1c-1.8,0-3.2,1.2-3.7,2.7h-3C9.5,3.8,8.3,5,8.3,6.5v1.4H5.6
		c-2.5,0-4.5,2-4.5,4.4v32.3C1,47,3.1,49,5.6,49H30c2.5,0,4.5-2,4.5-4.5v-3.2l6.3,6.3c1.8,1.8,4.8,1.9,6.7,0
		C49.4,45.7,49.5,42.7,47.6,40.9z M37.4,22.1c1.8,2.2,2.7,5.1,2.4,7.9c-0.4,4.1-3,7.5-6.6,9c0,0,0,0-0.1,0c-1.6,0.7-3.3,0.9-5.2,0.8
		c-6-0.6-10.3-5.9-9.7-11.9c0.3-2.8,1.6-5.3,3.6-7.1c0,0,0,0,0.1-0.1c2.2-1.9,5.2-2.9,8.2-2.6c1.1,0.1,2.1,0.4,3.1,0.8c0,0,0,0,0,0
		C34.8,19.7,36.2,20.7,37.4,22.1z M10.3,6.5c0-0.4,0.4-0.7,0.8-0.7h3.9c0.6,0,1-0.4,1-1c0-1,0.8-1.7,1.8-1.7c1,0,1.9,0.8,1.9,1.7
		c0,0.6,0.4,1,1,1h3.9c0.4,0,0.8,0.3,0.8,0.7v4.8c0,0.4-0.4,0.7-0.8,0.7H11.1c-0.4,0-0.8-0.3-0.8-0.7V6.5z M30,47H5.6
		C4.2,47,3,45.9,3,44.6V12.3c0-1.3,1.1-2.4,2.5-2.4h2.7v1.4c0,1.5,1.2,2.7,2.8,2.7h13.5c1.5,0,2.8-1.2,2.8-2.7V9.9H30
		c1.4,0,2.5,1.1,2.5,2.4v4.4c-0.7-0.2-1.5-0.4-2.3-0.4c-3.6-0.4-6.9,0.8-9.5,2.9h-12c-0.6,0-1,0.4-1,1s0.4,1,1,1h10.1
		c-0.7,0.9-1.2,1.8-1.7,2.9H8.8c-0.6,0-1,0.4-1,1s0.4,1,1,1h7.8c-0.1,0.6-0.3,1.2-0.3,1.8c0,0.4,0,0.7,0,1.1H8.8c-0.6,0-1,0.4-1,1
		s0.4,1,1,1h7.5c0.1,1,0.4,1.9,0.7,2.9H8.8c-0.6,0-1,0.4-1,1s0.4,1,1,1H18c0.6,1.1,1.4,2,2.3,2.8H8.8c-0.6,0-1,0.4-1,1s0.4,1,1,1
		h14.5c1.4,0.7,2.8,1.1,4.4,1.3c1.6,0.2,3.2,0,4.8-0.4v3.1C32.6,45.8,31.4,47,30,47z M46.2,46.2c-1.1,1.1-2.8,1.1-3.9,0l-6.4-6.3
		c1.6-1,2.9-2.3,3.9-3.9l6.3,6.3C47.3,43.4,47.3,45.1,46.2,46.2z"></path></svg>