<svg width="248" height="248" viewBox="0 0 248 248">
    <!--Flipped horizontally-->
    <path d="M 124 0 A 124 124 0 0 0 124 248 A 124 124 0 0 0 248 124 A 124 124 0 0 0 212 37.5 L 215.5 37.5 Q 228 37.3 219.5 33.5 L 201 25.5 Q 196 23 198 28.5 L 202.7 45 Q 206 57 208 44 L 208.5 40.5 A 119 119 0 0 1 243 124 A 119 119 0 0 1 124 243 A 119 119 0 0 1 124 5 A 1 1 0 0 0 124 0 Z" />
    
    <!--Based off original sketch-->
    <!-- <path d="M 124 0 A 124 124 0 0 1 124 248 A 124 124 0 0 1 0 124 A 124 124 0 0 1 36 37.5 L 32.5 37.5 Q 20 37.3 28.5 33.5 L 47 25.5 Q 52 23 50 28.5 L 45.3 45 Q 42 57 40 44 L 39.5 40.5 A 119 119 0 0 0 5 124 A 119 119 0 0 0 124 243 A 119 119 0 0 0 124 5 A 1 1 0 0 1 124 0 Z" /> -->
</svg>