<svg width="512" height="512" viewBox=" 0 0 512 512" >
  <style>
      .develop-text {
        font-family: "Alegreya Sans", serif;
        font-size: 2rem;
        font-weight: 900;
        fill: #224180;
        letter-spacing: 2.5px;
        user-select: none;
      }
  </style>
  
  <defs>
    <linearGradient id="blueGradient" x1="0%" y1="100%" x2="0%" y2="0%">
      <stop offset="0%" stop-color="#406ec8" />
      <stop offset="100%" stop-color="#2d549f" />
    </linearGradient>
  </defs>
  
  <path fill="url(#blueGradient)" transform="rotate(216, 256, 256)" d="M 256 10 A 10 10 0 0 0 246 0 A 256 256 0 0 0 20.5 154.391625 A 10 10 0 0 0 26.32955 166 L 82.8 184.484061267 A 10 10 0 0 0 95.2 179.3 A 177 177 0 0 1 246 78.82 A 10 10 0 0 0 256 68.4511191 Z "></path>
  <path id="blue-text-curve"
   transform="rotate(216, 256, 256)" d="M 63 183.37 A 180 180 0 0 1 256 48 A 180 180 0 0 0 63 183.37 Z" />
  <text class="develop-text" x="60">
    <textPath alignment-baseline="central" xlink:href="#blue-text-curve">
      DEVELOP
    </textPath>
  </text>
</svg>