<svg width="518" height="518" viewBox=" -3 -3 518 518" xmlns="http://www.w3.org/2000/svg">
  <style>
      .test-text {
        font-family: "Alegreya Sans", serif;
        font-size: 2rem;
        font-weight: 900;
        fill: #22612d;
        letter-spacing: 2.5px;
        user-select: none;
      }
  </style>
  
  <defs>
    <linearGradient id="greenGradient" x1="25%" y1="50%" x2="95%" y2="60%">
      <stop offset="0%" stop-color="#43c35a" />
      <stop offset="100%" stop-color="#2f8742" />
    </linearGradient>
  </defs>
  
  <path fill="url(#greenGradient)" transform="rotate(144, 256, 256)" d="M 256 10 A 10 10 0 0 0 246 0 A 256 256 0 0 0 20.5 154.391625 A 10 10 0 0 0 26.32955 166 L 82.8 184.484061267 A 10 10 0 0 0 95.2 179.3 A 177 177 0 0 1 246 78.82 A 10 10 0 0 0 256 68.4511191 Z "></path>
  <path id="green-text-curve" transform="rotate(144, 256, 256)" d="M 63 183.37 A 155 155 0 0 1 256 48 A 155 155 0 0 0 63 183.37 Z" />
  <text class="test-text" x="97">
    <textPath alignment-baseline="hanging" xlink:href="#green-text-curve">
      TEST
    </textPath>
  </text>
</svg>