<svg width="512" height="512" viewBox=" 0 0 512 512" >  <style>
      .design-text {
        font-family: "Alegreya Sans", serif;
        font-size: 2rem;
        font-weight: 900;
        fill: #345cad;
        letter-spacing: 3px;
        user-select: none;
      }
  </style>
  
  <defs>
    <linearGradient id="lightblueGradient" x1="0%" y1="100%" x2="0%" y2="0%">
      <stop offset="0%" stop-color="#2a9fde" />
      <stop offset="100%" stop-color="#406ec8" />
    </linearGradient>
  </defs>
  
  <path fill="url(#lightblueGradient)" transform="rotate(288, 256, 256)" alignment-baseline="hanging" d="M 256 10 A 10 10 0 0 0 246 0 A 256 256 0 0 0 20.5 154.391625 A 10 10 0 0 0 26.32955 166 L 82.8 184.484061267 A 10 10 0 0 0 95.2 179.3 A 177 177 0 0 1 246 78.82 A 10 10 0 0 0 256 68.4511191 Z " />
  
  <path id="lightblue-text-curve" transform="rotate(288, 256, 256)" d="M 256 36 A 236 236 0 0 0 55 175.37 A 236 236 0 0 1 256 36 Z" />
  <text class="design-text" x="69">
    <textPath alignment-baseline="central" xlink:href="#lightblue-text-curve">
      DESIGN
    </textPath>
  </text>
</svg>