<svg width="512" height="512" viewBox=" 0 0 512 512" >  <style>
      .review-text {
        font-family: "Alegreya Sans", serif;
        font-size: 2rem;
        font-weight: 900;
        fill: #a15602;
        letter-spacing: 3px;
        user-select: none;
      }
  </style>
  
  <defs>
    <linearGradient id="orangeGradient" x1="0%" y1="100%" x2="0%" y2="0%">
      <stop offset="0%" stop-color="#ff8c00" />
      <stop offset="100%" stop-color="#c56900" />
    </linearGradient>
  </defs>
  
  <path fill="#ff8c00" d="M 256 10 A 10 10 0 0 0 246 0 A 256 256 0 0 0 20.5 154.391625 A 10 10 0 0 0 26.32955 166 L 82.8 184.484061267 A 10 10 0 0 0 95.2 179.3 A 177 177 0 0 1 246 78.82 A 10 10 0 0 0 256 68.4511191 Z "></path>
  <path id="orange-text-curve" d="M 256 36 A 180 180 0 0 0 53 173.37 A 180 180 0 0 1 256 36 Z" />
  <text class="review-text" x="29">
    <textPath alignment-baseline="bottom" xlink:href="#orange-text-curve">
      REVIEW
    </textPath>
  </text>
</svg>